<?xml version="1.0" encoding="UTF-8"?>
<svg id="Layer_1" data-name="Layer 1" xmlns="http://www.w3.org/2000/svg" viewBox="0 0 1305.24 710.76">
  <defs>
    <style>
      .cls-1 {
        fill: #fff;
        stroke: #000;
        stroke-miterlimit: 10;
      }
    </style>
  </defs>
  <path class="cls-1" d="M.27,41.96c160.98,104.88,818.29,658.54,1304.88,668.29"/>
  <path class="cls-1" d="M.27,38.51c190.75,96.14,828.66,626.12,1304.88,629.37"/>
  <path class="cls-1" d="M.27,35.05c220.53,87.4,839.02,593.7,1304.88,590.45"/>
  <path class="cls-1" d="M.27,31.6c250.3,78.66,849.39,561.28,1304.88,551.52"/>
  <path class="cls-1" d="M.27,28.14c280.08,69.92,859.76,528.86,1304.88,512.6"/>
  <path class="cls-1" d="M.27,24.69c309.86,61.18,870.12,496.44,1304.88,473.68"/>
  <path class="cls-1" d="M.27,21.23c339.63,52.44,880.49,464.02,1304.88,434.76"/>
  <path class="cls-1" d="M.27,17.78c369.41,43.7,890.85,431.61,1304.88,395.83"/>
  <path class="cls-1" d="M.27,14.32c399.19,34.96,901.22,399.19,1304.88,356.91"/>
  <path class="cls-1" d="M.27,10.87c428.96,26.22,911.59,366.77,1304.88,317.99"/>
  <path class="cls-1" d="M.27,7.41c458.74,17.48,921.95,334.35,1304.88,279.07"/>
  <path class="cls-1" d="M.27,3.96c488.52,8.74,932.32,301.93,1304.88,240.14"/>
  <path class="cls-1" d="M.27.5c518.29,0,942.68,269.51,1304.88,201.22"/>
</svg>